<?xml version="1.0" encoding="UTF-8" standalone="no"?>
<!-- Generator: Adobe Illustrator 18.0.0, SVG Export Plug-In . SVG Version: 6.00 Build 0)  -->

<svg
   xmlns:dc="http://purl.org/dc/elements/1.1/"
   xmlns:cc="http://creativecommons.org/ns#"
   xmlns:rdf="http://www.w3.org/1999/02/22-rdf-syntax-ns#"
   xmlns:svg="http://www.w3.org/2000/svg"
   xmlns="http://www.w3.org/2000/svg"
   xmlns:sodipodi="http://sodipodi.sourceforge.net/DTD/sodipodi-0.dtd"
   xmlns:inkscape="http://www.inkscape.org/namespaces/inkscape"
   version="1.1"
   id="Capa_1"
   x="0px"
   y="0px"
   viewBox="0 0 67.635223 29.690069"
   xml:space="preserve"
   sodipodi:docname="random.svg"
   width="67.635223"
   height="29.690069"
   inkscape:version="0.92.1 r15371"><metadata
     id="metadata43"><rdf:RDF><cc:Work
         rdf:about=""><dc:format>image/svg+xml</dc:format><dc:type
           rdf:resource="http://purl.org/dc/dcmitype/StillImage" /><dc:title></dc:title></cc:Work></rdf:RDF></metadata><defs
     id="defs41" /><sodipodi:namedview
     pagecolor="#ffffff"
     bordercolor="#666666"
     borderopacity="1"
     objecttolerance="10"
     gridtolerance="10"
     guidetolerance="10"
     inkscape:pageopacity="0"
     inkscape:pageshadow="2"
     inkscape:window-width="1280"
     inkscape:window-height="960"
     id="namedview39"
     showgrid="false"
     inkscape:zoom="4.687562"
     inkscape:cx="32.793372"
     inkscape:cy="-28.034854"
     inkscape:window-x="0"
     inkscape:window-y="27"
     inkscape:window-maximized="1"
     inkscape:current-layer="Capa_1" /><g
     id="g8"
     transform="translate(-0.09607513,0.06010185)" /><g
     id="g10"
     transform="translate(-0.09607513,0.06010185)" /><g
     id="g12"
     transform="translate(-0.09607513,0.06010185)" /><g
     id="g14"
     transform="translate(-0.09607513,0.06010185)" /><g
     id="g16"
     transform="translate(-0.09607513,0.06010185)" /><g
     id="g18"
     transform="translate(-0.09607513,0.06010185)" /><g
     id="g20"
     transform="translate(-0.09607513,0.06010185)" /><g
     id="g22"
     transform="translate(-0.09607513,0.06010185)" /><g
     id="g24"
     transform="translate(-0.09607513,0.06010185)" /><g
     id="g26"
     transform="translate(-0.09607513,0.06010185)" /><g
     id="g28"
     transform="translate(-0.09607513,0.06010185)" /><g
     id="g30"
     transform="translate(-0.09607513,0.06010185)" /><g
     id="g32"
     transform="translate(-0.09607513,0.06010185)" /><g
     id="g34"
     transform="translate(-0.09607513,0.06010185)" /><g
     id="g36"
     transform="translate(-0.09607513,0.06010185)" /><path
     inkscape:connector-curvature="0"
     id="path4"
     d="M 49.865979,1.086276 38.850396,12.964698 c -1.274953,1.374817 -1.193729,3.529963 0.181089,4.804915 l 11.877689,11.014905 c 1.374817,1.274952 3.529962,1.193728 4.804915,-0.18109 L 66.729673,16.725006 c 1.274951,-1.374817 1.193728,-3.529963 -0.181089,-4.804915 L 54.671628,0.905867 c -1.374817,-1.274951 -3.530696,-1.194408 -4.805649,0.180409 z m 4.683833,22.891521 c -0.751372,0.810225 -2.016196,0.857895 -2.826421,0.106523 -0.810226,-0.751372 -0.857895,-2.016194 -0.106524,-2.826421 0.751372,-0.810225 2.016195,-0.857894 2.826421,-0.106522 0.810225,0.751371 0.857896,2.016194 0.106524,2.82642 z m -8.065596,-7.479718 c -0.751371,0.810226 -2.016194,0.857895 -2.82642,0.106523 -0.810226,-0.751371 -0.857895,-2.016194 -0.106524,-2.826419 0.751372,-0.810227 2.016196,-0.857896 2.826421,-0.106524 0.810225,0.751372 0.857895,2.016195 0.106523,2.82642 z m 8.017558,-0.06583 c -0.751372,0.810226 -2.016195,0.857895 -2.826421,0.106522 -0.810226,-0.75137 -0.857895,-2.016193 -0.106524,-2.826419 0.751372,-0.810226 2.016196,-0.857895 2.826421,-0.106523 0.810225,0.751372 0.857895,2.016195 0.106524,2.82642 z m 7.527755,-0.52005 c -0.751371,0.810226 -2.016196,0.857894 -2.826421,0.106522 -0.810226,-0.751371 -0.857894,-2.016194 -0.106523,-2.826419 0.751372,-0.810226 2.016195,-0.857894 2.826421,-0.106523 0.810226,0.751372 0.857895,2.016194 0.106523,2.82642 z M 53.963934,8.432482 C 53.212562,9.242708 51.947738,9.290377 51.137513,8.539005 50.327288,7.787633 50.279619,6.522809 51.030991,5.712584 c 0.75137,-0.810226 2.016193,-0.857895 2.82642,-0.106523 0.810225,0.751372 0.857894,2.016195 0.106523,2.826421 z"
     style="fill:#ffffff" /><path
     inkscape:connector-curvature="0"
     id="XMLID_654_"
     d="M 33.667646,21.592128 C 33.429184,21.349282 33.09828,21.197622 32.731139,21.194174 l -22.9204,-0.208758 c -0.734288,-0.0066 -1.334866,0.58305 -1.341555,1.317338 -0.0067,0.734494 0.582946,1.334969 1.317441,1.34166 l 22.920297,0.208651 c 0.734286,0.0066 1.334865,-0.58305 1.341554,-1.317337 0.0032,-0.367144 -0.142471,-0.70086 -0.38083,-0.9436 z M 5.5e-5,15.249521 c -0.0066,0.734496 0.583051,1.334866 1.317442,1.341661 l 28.147204,0.25626 c 0.734288,0.0066 1.334867,-0.583051 1.341555,-1.317337 0.0032,-0.367145 -0.14247,-0.700861 -0.380829,-0.943601 C 30.187069,14.343764 29.85606,14.192 29.488917,14.188551 L 1.341715,13.93229 C 0.607428,13.92569 0.006849,14.515342 5.5e-5,15.249521 Z M 9.269189,9.336845 32.18917,9.545598 c 0.734286,0.0066 1.334866,-0.58305 1.341554,-1.317337 C 33.533924,7.861117 33.388252,7.527402 33.149894,7.28466 32.911536,7.04192 32.580529,6.890155 32.213387,6.886707 L 9.293301,6.677848 c -0.734287,-0.0066 -1.334866,0.583049 -1.341554,1.317337 -0.0065,0.734289 0.583156,1.334762 1.317442,1.34166 z"
     sodipodi:nodetypes="scsscccsccccsccccscscccc"
     style="stroke-width:0.14772137;fill:#ffffff" /></svg>