<?xml version="1.0" encoding="UTF-8" standalone="no"?>
<!-- Generator: Adobe Illustrator 18.0.0, SVG Export Plug-In . SVG Version: 6.00 Build 0)  -->

<svg
   xmlns:dc="http://purl.org/dc/elements/1.1/"
   xmlns:cc="http://creativecommons.org/ns#"
   xmlns:rdf="http://www.w3.org/1999/02/22-rdf-syntax-ns#"
   xmlns:svg="http://www.w3.org/2000/svg"
   xmlns="http://www.w3.org/2000/svg"
   xmlns:sodipodi="http://sodipodi.sourceforge.net/DTD/sodipodi-0.dtd"
   xmlns:inkscape="http://www.inkscape.org/namespaces/inkscape"
   version="1.1"
   id="Capa_1"
   x="0px"
   y="0px"
   viewBox="0 0 34.048527 17.175327"
   xml:space="preserve"
   sodipodi:docname="random-1.svg"
   width="34.048527"
   height="17.175327"
   inkscape:version="0.92.1 r15371"><metadata
     id="metadata43"><rdf:RDF><cc:Work
         rdf:about=""><dc:format>image/svg+xml</dc:format><dc:type
           rdf:resource="http://purl.org/dc/dcmitype/StillImage" /><dc:title></dc:title></cc:Work></rdf:RDF></metadata><defs
     id="defs41" /><sodipodi:namedview
     pagecolor="#ffffff"
     bordercolor="#666666"
     borderopacity="1"
     objecttolerance="10"
     gridtolerance="10"
     guidetolerance="10"
     inkscape:pageopacity="0"
     inkscape:pageshadow="2"
     inkscape:window-width="1280"
     inkscape:window-height="960"
     id="namedview39"
     showgrid="false"
     inkscape:zoom="4.687562"
     inkscape:cx="32.793372"
     inkscape:cy="-33.871803"
     inkscape:window-x="0"
     inkscape:window-y="27"
     inkscape:window-maximized="1"
     inkscape:current-layer="Capa_1" /><g
     id="g8"
     transform="translate(-0.09607513,-6.6176913)" /><g
     id="g10"
     transform="translate(-0.09607513,-6.6176913)" /><g
     id="g12"
     transform="translate(-0.09607513,-6.6176913)" /><g
     id="g14"
     transform="translate(-0.09607513,-6.6176913)" /><g
     id="g16"
     transform="translate(-0.09607513,-6.6176913)" /><g
     id="g18"
     transform="translate(-0.09607513,-6.6176913)" /><g
     id="g20"
     transform="translate(-0.09607513,-6.6176913)" /><g
     id="g22"
     transform="translate(-0.09607513,-6.6176913)" /><g
     id="g24"
     transform="translate(-0.09607513,-6.6176913)" /><g
     id="g26"
     transform="translate(-0.09607513,-6.6176913)" /><g
     id="g28"
     transform="translate(-0.09607513,-6.6176913)" /><g
     id="g30"
     transform="translate(-0.09607513,-6.6176913)" /><g
     id="g32"
     transform="translate(-0.09607513,-6.6176913)" /><g
     id="g34"
     transform="translate(-0.09607513,-6.6176913)" /><g
     id="g36"
     transform="translate(-0.09607513,-6.6176913)" /><path
     inkscape:connector-curvature="0"
     id="XMLID_654_"
     d="M 33.667646,14.914335 C 33.429184,14.671489 33.09828,14.519829 32.731139,14.516381 L 9.8107389,14.307623 c -0.734288,-0.0066 -1.334866,0.58305 -1.341555,1.317338 -0.0067,0.734494 0.582946,1.334969 1.317441,1.34166 l 22.9202971,0.208651 c 0.734286,0.0066 1.334865,-0.58305 1.341554,-1.317337 0.0032,-0.367144 -0.142471,-0.70086 -0.38083,-0.9436 z M 5.4869149e-5,8.571728 C -0.00654513,9.306224 0.58310587,9.906594 1.3174969,9.913389 l 28.1472041,0.25626 c 0.734288,0.0066 1.334867,-0.583051 1.341555,-1.317337 0.0032,-0.367145 -0.14247,-0.700861 -0.380829,-0.943601 C 30.187069,7.665971 29.85606,7.514207 29.488917,7.510758 L 1.3417149,7.254497 C 0.60742787,7.247897 0.00684887,7.837549 5.4869149e-5,8.571728 Z M 9.2691889,2.6590519 32.18917,2.8678049 c 0.734286,0.0066 1.334866,-0.58305 1.341554,-1.317337 0.0032,-0.367144 -0.142472,-0.70085903 -0.38083,-0.94360103 -0.238358,-0.24274 -0.569365,-0.394505 -0.936507,-0.397953 L 9.2933009,5.486935e-5 C 8.5590139,-0.00654513 7.9584349,0.58310387 7.9517469,1.3173919 c -0.0065,0.734289 0.583156,1.334762 1.317442,1.34166 z"
     sodipodi:nodetypes="scsscccsccccsccccscscccc"
     style="fill:#ffffff;stroke-width:0.14772137" /></svg>