<?xml version="1.0" encoding="UTF-8" standalone="no"?>
<!-- Generator: Adobe Illustrator 18.0.0, SVG Export Plug-In . SVG Version: 6.00 Build 0)  -->

<svg
   xmlns:dc="http://purl.org/dc/elements/1.1/"
   xmlns:cc="http://creativecommons.org/ns#"
   xmlns:rdf="http://www.w3.org/1999/02/22-rdf-syntax-ns#"
   xmlns:svg="http://www.w3.org/2000/svg"
   xmlns="http://www.w3.org/2000/svg"
   xmlns:sodipodi="http://sodipodi.sourceforge.net/DTD/sodipodi-0.dtd"
   xmlns:inkscape="http://www.inkscape.org/namespaces/inkscape"
   version="1.1"
   id="Capa_1"
   x="0px"
   y="0px"
   viewBox="0 0 29.690382 29.690069"
   xml:space="preserve"
   sodipodi:docname="random-2.svg"
   width="29.690382"
   height="29.690069"
   inkscape:version="0.92.1 r15371"><metadata
     id="metadata43"><rdf:RDF><cc:Work
         rdf:about=""><dc:format>image/svg+xml</dc:format><dc:type
           rdf:resource="http://purl.org/dc/dcmitype/StillImage" /><dc:title></dc:title></cc:Work></rdf:RDF></metadata><defs
     id="defs41" /><sodipodi:namedview
     pagecolor="#ffffff"
     bordercolor="#666666"
     borderopacity="1"
     objecttolerance="10"
     gridtolerance="10"
     guidetolerance="10"
     inkscape:pageopacity="0"
     inkscape:pageshadow="2"
     inkscape:window-width="1280"
     inkscape:window-height="960"
     id="namedview39"
     showgrid="false"
     inkscape:zoom="4.687562"
     inkscape:cx="32.793372"
     inkscape:cy="-33.871803"
     inkscape:window-x="0"
     inkscape:window-y="27"
     inkscape:window-maximized="1"
     inkscape:current-layer="Capa_1" /><g
     id="g8"
     transform="translate(-38.040918,0.0601017)" /><g
     id="g10"
     transform="translate(-38.040918,0.0601017)" /><g
     id="g12"
     transform="translate(-38.040918,0.0601017)" /><g
     id="g14"
     transform="translate(-38.040918,0.0601017)" /><g
     id="g16"
     transform="translate(-38.040918,0.0601017)" /><g
     id="g18"
     transform="translate(-38.040918,0.0601017)" /><g
     id="g20"
     transform="translate(-38.040918,0.0601017)" /><g
     id="g22"
     transform="translate(-38.040918,0.0601017)" /><g
     id="g24"
     transform="translate(-38.040918,0.0601017)" /><g
     id="g26"
     transform="translate(-38.040918,0.0601017)" /><g
     id="g28"
     transform="translate(-38.040918,0.0601017)" /><g
     id="g30"
     transform="translate(-38.040918,0.0601017)" /><g
     id="g32"
     transform="translate(-38.040918,0.0601017)" /><g
     id="g34"
     transform="translate(-38.040918,0.0601017)" /><g
     id="g36"
     transform="translate(-38.040918,0.0601017)" /><path
     inkscape:connector-curvature="0"
     id="path4"
     d="M 11.921136,1.0862759 0.90555314,12.964698 c -1.274953,1.374817 -1.193729,3.529963 0.18108896,4.804915 L 12.964331,28.784518 c 1.374817,1.274952 3.529962,1.193728 4.804915,-0.18109 L 28.78483,16.725006 c 1.274951,-1.374817 1.193728,-3.529963 -0.181089,-4.804915 L 16.726785,0.90586685 c -1.374817,-1.274951 -3.530696,-1.194408 -4.805649,0.18040905 z m 4.683833,22.8915211 c -0.751372,0.810225 -2.016196,0.857895 -2.826421,0.106523 -0.810226,-0.751372 -0.857895,-2.016194 -0.106524,-2.826421 0.751372,-0.810225 2.016195,-0.857894 2.826421,-0.106522 0.810225,0.751371 0.857896,2.016194 0.106524,2.82642 z M 8.5393731,16.498079 c -0.751371,0.810226 -2.016194,0.857895 -2.82642,0.106523 -0.810226,-0.751371 -0.857895,-2.016194 -0.106524,-2.826419 0.751372,-0.810227 2.016196,-0.857896 2.826421,-0.106524 0.810225,0.751372 0.857895,2.016195 0.106523,2.82642 z m 8.0175579,-0.06583 c -0.751372,0.810226 -2.016195,0.857895 -2.826421,0.106522 -0.810226,-0.75137 -0.857895,-2.016193 -0.106524,-2.826419 0.751372,-0.810226 2.016196,-0.857895 2.826421,-0.106523 0.810225,0.751372 0.857895,2.016195 0.106524,2.82642 z m 7.527755,-0.52005 c -0.751371,0.810226 -2.016196,0.857894 -2.826421,0.106522 -0.810226,-0.751371 -0.857894,-2.016194 -0.106523,-2.826419 0.751372,-0.810226 2.016195,-0.857894 2.826421,-0.106523 0.810226,0.751372 0.857895,2.016194 0.106523,2.82642 z M 16.019091,8.4324819 c -0.751372,0.810226 -2.016196,0.857895 -2.826421,0.106523 -0.810225,-0.751372 -0.857894,-2.016196 -0.106522,-2.826421 0.75137,-0.810226 2.016193,-0.857895 2.82642,-0.106523 0.810225,0.751372 0.857894,2.016195 0.106523,2.826421 z"
     style="fill:#ffffff" /></svg>