<?xml version="1.0" standalone="no"?>
<!DOCTYPE svg PUBLIC "-//W3C//DTD SVG 20010904//EN"
 "http://www.w3.org/TR/2001/REC-SVG-20010904/DTD/svg10.dtd">
<svg version="1.0" xmlns="http://www.w3.org/2000/svg"
 width="700.000000pt" height="700.000000pt" viewBox="0 0 700.000000 700.000000"
 preserveAspectRatio="xMidYMid meet">
<metadata>
Created by potrace 1.11, written by Peter Selinger 2001-2013
</metadata>
<g transform="translate(0.000000,700.000000) scale(0.100000,-0.100000)"
fill="#000000" stroke="none">
<path d="M1039 5596 c-2 -2 -26 -7 -52 -10 -118 -16 -270 -83 -353 -156 -121
-105 -202 -291 -214 -485 -6 -107 -4 -2858 2 -2920 33 -314 201 -518 493 -597
76 -21 104 -22 565 -24 267 -2 508 1 535 5 121 22 127 23 205 53 133 51 243
150 308 275 91 176 91 180 89 1121 l-2 804 -24 19 c-23 19 -44 19 -498 19
l-475 -1 -24 -24 -24 -24 0 -295 c0 -295 0 -295 23 -322 l24 -27 154 -1 154
-1 0 -390 c0 -347 -2 -393 -17 -421 -24 -44 -72 -82 -116 -91 -20 -4 -147 -8
-282 -8 -242 0 -246 1 -289 25 -27 15 -51 40 -65 65 l-21 40 -3 1245 c-2 866
0 1260 8 1295 11 55 42 95 93 122 27 15 66 17 272 19 281 2 323 -5 371 -61 18
-19 36 -53 41 -74 6 -20 10 -139 11 -264 0 -124 3 -235 7 -247 14 -43 42 -47
345 -45 157 1 288 3 292 4 4 0 16 11 27 23 20 20 20 34 20 367 0 406 -10 483
-78 633 -71 156 -228 279 -422 330 -80 21 -106 22 -580 25 -273 1 -498 1 -500
-1z"/>
<path d="M3710 5585 c-96 -17 -159 -38 -239 -82 -174 -94 -267 -235 -317 -483
-9 -48 -13 -2934 -3 -3001 13 -93 19 -122 44 -192 65 -187 196 -316 387 -381
119 -40 193 -45 678 -44 404 0 465 2 545 19 50 10 99 22 110 27 11 5 45 20 75
33 129 56 236 172 295 318 59 144 58 126 62 1007 5 905 6 877 -59 889 -18 3
-240 5 -492 3 l-459 -3 -19 -25 c-17 -24 -19 -47 -19 -318 0 -187 4 -299 11
-312 15 -28 46 -33 202 -34 87 0 139 -4 141 -10 7 -21 0 -722 -7 -763 -9 -52
-56 -104 -111 -125 -33 -13 -87 -15 -290 -14 -246 1 -251 2 -294 26 -32 18
-52 39 -70 73 l-24 48 0 1258 0 1259 24 48 c18 36 36 56 69 74 45 25 46 25
305 25 259 0 260 0 304 -25 44 -25 77 -66 87 -112 3 -12 7 -132 8 -266 2 -236
2 -243 24 -265 22 -22 25 -22 323 -22 l301 0 24 28 24 29 -1 346 c-2 295 -5
359 -20 432 -53 242 -159 386 -350 474 -149 68 -169 70 -709 72 -363 2 -504
-1 -560 -11z"/>
<path d="M5877 5586 c-28 -21 -34 -61 -31 -211 1 -77 5 -378 9 -670 3 -291 8
-656 10 -810 2 -154 7 -497 10 -762 3 -265 8 -492 10 -504 10 -53 15 -54 308
-57 149 -2 282 0 294 3 12 3 31 15 42 26 18 19 20 38 21 218 1 108 3 300 5
426 2 127 6 426 9 665 3 239 9 658 12 930 11 762 12 709 -20 737 l-27 23 -317
0 c-251 -1 -321 -3 -335 -14z"/>
<path d="M5942 2088 c-16 -4 -37 -17 -48 -29 -18 -20 -19 -41 -22 -297 -2
-196 1 -284 9 -304 22 -55 42 -58 334 -58 298 0 317 4 333 63 5 17 9 147 10
287 0 272 -5 307 -48 330 -26 14 -520 20 -568 8z"/>
</g>
</svg>
