<?xml version="1.0" standalone="no"?>
<!DOCTYPE svg PUBLIC "-//W3C//DTD SVG 20010904//EN"
 "http://www.w3.org/TR/2001/REC-SVG-20010904/DTD/svg10.dtd">
<svg version="1.0" xmlns="http://www.w3.org/2000/svg"
 width="700.000000pt" height="700.000000pt" viewBox="0 0 700.000000 700.000000"
 preserveAspectRatio="xMidYMid meet">
<metadata>
Created by potrace 1.11, written by Peter Selinger 2001-2013
</metadata>
<g transform="translate(0.000000,700.000000) scale(0.100000,-0.100000)"
fill="#000000" stroke="none">
<path d="M6009 5578 c0 -18 -2 -42 -5 -53 -2 -11 -6 -45 -9 -75 -8 -77 -15
-141 -20 -170 -2 -14 -7 -59 -11 -100 -3 -41 -8 -88 -9 -105 -10 -101 -20
-234 -31 -430 -10 -180 -11 -893 -1 -1055 5 -69 10 -152 12 -185 3 -54 7 -101
20 -245 2 -25 7 -81 11 -125 3 -44 7 -87 9 -95 2 -8 6 -44 9 -80 10 -94 16
-152 21 -175 2 -11 4 -28 4 -38 1 -9 4 -16 9 -15 7 2 96 -8 242 -27 198 -27
194 -27 196 15 1 32 8 145 20 330 2 41 6 102 9 135 2 33 7 101 10 150 3 50 8
106 10 125 2 19 7 69 10 110 3 41 7 91 10 110 2 19 7 71 10 114 4 43 8 86 10
95 1 9 6 52 10 95 4 43 8 87 10 97 2 10 7 49 10 86 4 37 9 70 10 73 2 3 6 34
10 70 3 36 12 106 20 155 7 50 16 108 20 130 21 144 65 391 96 535 16 80 32
157 35 172 3 15 18 77 33 138 24 96 25 110 12 115 -15 4 -190 38 -260 50 -19
3 -37 7 -40 9 -3 2 -28 7 -56 10 -27 4 -66 11 -85 16 -19 5 -48 11 -65 13 -48
8 -258 48 -277 53 -15 4 -18 -1 -19 -28z"/>
<path d="M1320 5444 c-330 -58 -606 -308 -815 -739 -139 -285 -247 -658 -289
-995 -3 -25 -8 -67 -12 -95 -11 -90 -13 -108 -20 -245 -12 -224 -7 -505 12
-640 7 -50 33 -201 39 -225 80 -345 202 -591 389 -780 217 -220 471 -324 801
-330 135 -2 220 15 340 67 323 141 611 508 768 979 50 151 92 381 91 499 -1
52 -13 257 -20 319 -3 29 -6 74 -8 100 l-3 46 -44 -1 c-56 -1 -212 -15 -219
-19 -3 -2 -41 -6 -85 -10 -44 -4 -91 -8 -105 -10 -14 -2 -50 -6 -80 -10 -30
-3 -71 -8 -90 -10 -19 -2 -69 -7 -110 -10 -74 -6 -142 -12 -210 -20 -42 -5
-242 -18 -288 -19 l-34 -1 6 -46 c4 -25 13 -70 20 -100 8 -30 17 -67 19 -84 3
-16 10 -52 16 -80 6 -27 13 -61 16 -75 31 -150 38 -171 54 -166 9 3 48 8 86
12 39 3 73 8 77 10 4 3 62 7 128 11 l121 6 -6 -29 c-3 -16 -8 -45 -11 -64 -74
-462 -224 -686 -468 -696 -107 -4 -189 44 -257 149 -62 95 -129 295 -143 428
-3 24 -8 55 -10 68 -5 22 -12 81 -21 166 -21 211 -22 649 -1 760 2 11 7 51 11
90 4 38 8 72 10 75 2 3 6 23 9 45 13 79 17 101 37 185 32 132 88 316 118 385
99 233 183 363 270 420 73 49 168 34 239 -36 73 -73 139 -243 157 -406 3 -26
8 -61 12 -78 13 -66 4 -420 -13 -477 -5 -15 2 -18 38 -19 24 0 50 -2 58 -3 8
-2 51 -6 95 -10 147 -12 200 -17 240 -21 124 -12 213 -16 218 -8 3 4 8 32 12
62 4 30 8 61 10 70 1 9 6 48 10 86 4 39 9 84 11 100 5 40 5 279 -1 330 -11
111 -17 149 -39 243 -76 334 -281 605 -564 746 -57 29 -206 81 -262 91 -43 8
-276 15 -310 9z"/>
<path d="M4021 5430 c-226 -55 -446 -231 -623 -500 -169 -258 -325 -674 -384
-1030 -4 -25 -8 -47 -9 -50 -2 -8 -18 -114 -21 -137 -1 -13 -5 -40 -8 -60 -4
-21 -9 -63 -11 -93 -3 -30 -8 -89 -12 -130 -14 -160 -7 -580 12 -701 2 -13 6
-45 9 -70 56 -405 232 -776 467 -984 211 -186 483 -285 772 -280 116 2 157 8
242 37 148 49 291 144 420 280 104 109 110 117 184 229 113 170 221 413 275
619 27 100 29 114 46 225 12 88 4 427 -15 555 -2 14 -4 36 -4 48 -1 23 -2 24
-83 17 -46 -4 -85 -8 -88 -10 -3 -2 -43 -6 -90 -10 -47 -4 -87 -8 -90 -10 -3
-2 -43 -6 -90 -10 -47 -4 -87 -8 -90 -10 -3 -2 -41 -6 -85 -9 -44 -4 -98 -9
-120 -11 -54 -6 -211 -20 -350 -30 -104 -8 -179 -15 -181 -18 -1 -1 14 -72 32
-157 19 -85 36 -164 38 -175 2 -11 12 -62 23 -112 10 -51 23 -95 29 -97 6 -2
31 0 55 4 68 13 123 19 250 26 l117 7 -5 -29 c-5 -25 -34 -181 -49 -254 -3
-14 -16 -60 -29 -102 -87 -276 -228 -410 -425 -403 -78 3 -132 29 -189 91 -72
78 -144 244 -171 393 -6 31 -12 66 -15 79 -4 22 -18 127 -30 217 -23 190 -24
698 -1 810 2 11 7 47 10 80 13 110 56 312 97 452 44 151 121 353 150 395 11
14 19 29 19 33 0 9 84 134 107 160 92 104 203 117 296 34 64 -55 131 -193 152
-311 3 -13 9 -45 15 -73 15 -68 22 -454 9 -534 -5 -35 -8 -65 -7 -67 2 -1 39
-5 83 -9 44 -3 98 -8 120 -10 22 -2 76 -7 120 -10 44 -4 96 -8 115 -10 19 -2
74 -6 121 -9 100 -8 89 -19 109 119 6 44 13 94 16 110 12 67 11 394 -1 485
-42 314 -145 544 -324 727 -116 118 -294 224 -441 263 -25 7 -45 12 -45 12 0
0 -26 6 -58 13 -84 19 -276 17 -366 -5z"/>
<path d="M5897 2353 c-2 -5 -3 -28 -1 -53 5 -67 5 -408 0 -460 -9 -95 -18
-157 -32 -215 -17 -74 -17 -82 -1 -82 6 0 50 -8 97 -17 47 -10 94 -20 105 -22
11 -2 45 -9 75 -14 30 -5 75 -14 100 -19 25 -5 61 -12 80 -15 19 -4 62 -12 95
-19 92 -20 94 -19 115 42 25 70 39 138 59 294 11 83 6 345 -8 397 -17 64 -42
120 -55 121 -6 0 -19 2 -29 4 -9 2 -50 6 -90 10 -39 3 -83 8 -97 10 -14 2 -54
7 -90 10 -36 4 -81 8 -100 10 -19 2 -64 7 -100 10 -36 4 -77 8 -92 11 -15 2
-29 1 -31 -3z"/>
</g>
</svg>
